<svg width="118" height="84" xmlns="http://www.w3.org/2000/svg"><g fill="none" fill-rule="evenodd"><path d="M68 54a1 1 0 0 1-1-1V19c0-.6.4-1 1-1h2c.6 0 1 .4 1 1v34c0 .6-.4 1-1 1h-2zm-20 0a1 1 0 0 1-1-1V19c0-.6.4-1 1-1h2c.6 0 1 .4 1 1v34c0 .6-.4 1-1 1h-2zM86 8c.6 0 1 .4 1 1v2c0 .6-.4 1-1 1h-3v46a6 6 0 0 1-6 6H41a6 6 0 0 1-6-6V12h-3a1 1 0 0 1-1-1V9c0-.6.4-1 1-1h13l4.2-5.6C50.2 1.1 52.3 0 54 0h10c1.7 0 3.8 1 4.8 2.4L73 8h13zM52.4 4.8L50 8h18l-2.4-3.2c-.3-.4-1-.8-1.6-.8H54c-.6 0-1.3.4-1.6.8zM79 58V12H39v46c0 1.1.9 2 2 2h36a2 2 0 0 0 2-2zm-21-4a1 1 0 0 1-1-1V19c0-.6.4-1 1-1h2c.6 0 1 .4 1 1v34c0 .6-.4 1-1 1h-2z" fill="#CF202E" fill-rule="nonzero"/><text font-family="FontAwesome5Pro-Solid, Font Awesome 5 Pro" font-size="18" font-weight="700" fill="#CFCFCF"><tspan x="102" y="29">minus</tspan></text><text opacity=".6" font-family="FontAwesome5Pro-Solid, Font Awesome 5 Pro" font-size="14" font-weight="700" fill="#CF202E"><tspan x="45" y="80">minus</tspan></text><text opacity=".7" font-family="FontAwesome5Pro-Solid, Font Awesome 5 Pro" font-size="14" font-weight="700" fill="#CFCFCF"><tspan x="82" y="83">plus</tspan></text><text opacity=".3" font-family="FontAwesome5Pro-Solid, Font Awesome 5 Pro" font-size="12" font-weight="700" fill="#CF202E"><tspan x="11" y="24">circle</tspan></text><text opacity=".3" font-family="FontAwesome5Pro-Solid, Font Awesome 5 Pro" font-size="12" font-weight="700" fill="#CFCFCF"><tspan x="100" y="53">circle</tspan></text><text font-family="FontAwesome5Pro-Solid, Font Awesome 5 Pro" font-size="18" font-weight="700" fill="#CFCFCF"><tspan x="0" y="56">plus</tspan></text></g></svg>